<svg xmlns="http://www.w3.org/2000/svg" xml:lang="en" height="247.79999999999998pt" width="349.69599999999997pt" viewBox="-186.72799999999998 -185.07999999999998 349.69599999999997 247.79999999999998" style="background-color:white;"><circle cx="19.8" cy="-0" r="19.8" style="stroke:black;fill:none;stroke-width:2.0;stroke-dasharray:-;" /><circle cx="27.06" cy="-79.08" r="18" style="stroke:black;fill:none;stroke-width:2.0;stroke-dasharray:-;" /><polygon points="72.06,-72.78 81.06,-85.38 90.06,-72.78 " style="stroke:black;fill:none;stroke-width:2.0;stroke-dasharray:-;stroke-linecap:round;stroke-linejoin:round;" /><path d="M 0.0,-0.0 L 13.2,-0" style="stroke:black;fill:none;stroke-width:2.0;stroke-dasharray:-;stroke-linecap:round;stroke-linejoin:round;" /><path d="M 13.2,-13.2 L 13.2,13.2" style="stroke:black;fill:none;stroke-width:2.0;stroke-dasharray:-;stroke-linecap:round;stroke-linejoin:round;" /><path d="M 13.2,-6.6 L 27.06,-18.48 L 27.06,-25.08" style="stroke:black;fill:none;stroke-width:2.0;stroke-dasharray:-;stroke-linecap:round;stroke-linejoin:round;" /><path d="M 13.2,6.6 L 27.06,18.48 L 27.06,25.08" style="stroke:black;fill:none;stroke-width:2.0;stroke-dasharray:-;stroke-linecap:round;stroke-linejoin:round;" /><path d="M 13.2,6.6 L 20.227,12.623" style="stroke:black;fill:none;stroke-width:2.0;stroke-dasharray:-;stroke-linecap:round;stroke-linejoin:round;" /><path d="M 25.541 17.178 L 17.884 15.356 L 22.57 9.89 Z" style="stroke:black;fill:black;stroke-linecap:butt;stroke-linejoin:miter;" /><path d="M 0.0,-0.0 L -36,-0 L -39,9 L -45,-9 L -51,9 L -57,-9 L -63,9 L -69,-9 L -72,-0 L -108,-0" style="stroke:black;fill:none;stroke-width:2.0;stroke-dasharray:-;stroke-linecap:round;stroke-linejoin:round;" /><path d="M -108.0,-1.3226185430791413e-14 L -117,-0 L -126,-0" style="stroke:black;fill:none;stroke-width:2.0;stroke-dasharray:-;stroke-linecap:round;stroke-linejoin:round;" /><path d="M 27.06,25.08 L 27.06,39.48 L 18.06,39.48 L 36.06,39.48 M 20.76,43.8 L 33.36,43.8 M 25.26,48.12 L 28.86,48.12" style="stroke:black;fill:none;stroke-width:2.0;stroke-dasharray:-;stroke-linecap:round;stroke-linejoin:round;" /><path d="M 27.06,-25.08 L 27.06,-53.16 L 27.06,-53.16 M 27.06,-105 L 27.06,-105 L 27.06,-133.08" style="stroke:black;fill:none;stroke-width:2.0;stroke-dasharray:-;stroke-linecap:round;stroke-linejoin:round;" /><path d="M 34.980000000000004,-61.080000000000005 L 34.98,-53.16 L 19.14,-53.16 L 19.14,-61.08" style="stroke:black;fill:none;stroke-width:2.0;stroke-dasharray:-;stroke-linecap:round;stroke-linejoin:round;" /><path d="M 34.980000000000004,-97.08 L 34.98,-105 L 19.14,-105 L 19.14,-97.08" style="stroke:black;fill:none;stroke-width:2.0;stroke-dasharray:-;stroke-linecap:round;stroke-linejoin:round;" /><path d="M 27.060000000000006,-133.08 L 27.06,-147.48" style="stroke:black;fill:none;stroke-width:2.0;stroke-dasharray:-;stroke-linecap:round;stroke-linejoin:round;" /><path d="M 27.060000000000006,-147.48 L 20.31,-147.48" style="stroke:black;fill:none;stroke-width:2.0;stroke-dasharray:-;stroke-linecap:round;stroke-linejoin:round;" /><path d="M 27.060000000000006,-147.48 L 33.81,-147.48" style="stroke:black;fill:none;stroke-width:2.0;stroke-dasharray:-;stroke-linecap:round;stroke-linejoin:round;" /><path d="M 27.06,-25.08 L 54.06,-25.08 L 81.06,-25.08" style="stroke:black;fill:none;stroke-width:2.0;stroke-dasharray:-;stroke-linecap:round;stroke-linejoin:round;" /><path d="M 81.05999999999999,-25.08 L 81.06,-72.78 M 72.06,-85.38 L 90.06,-85.38 M 81.06,-85.38 L 81.06,-133.08" style="stroke:black;fill:none;stroke-width:2.0;stroke-dasharray:-;stroke-linecap:round;stroke-linejoin:round;" /><path d="M 81.05999999999999,-133.08 L 54.06,-133.08 L 27.06,-133.08" style="stroke:black;fill:none;stroke-width:2.0;stroke-dasharray:-;stroke-linecap:round;stroke-linejoin:round;" /><text x="48.6" y="-13.7" dominant-baseline="central" fill="black" font-size="14.0" font-family="sans" text-anchor="start"><tspan x="48.6" dy="14.0">Q1</tspan></text><text x="-54.0" y="-32.00000000000001" dominant-baseline="ideographic" fill="black" font-size="14.0" font-family="sans" text-anchor="middle"><tspan x="-54.0" dy="14.0">1kΩ</tspan></text><text x="-135.0" y="-14.000000000000016" dominant-baseline="central" fill="black" font-size="14.0" font-family="sans" text-anchor="end"><tspan x="-135.0" dy="14.0">GPIO</tspan></text><text x="0.060000000000001386" y="-93.08" dominant-baseline="central" fill="black" font-size="14.0" font-family="sans" text-anchor="end"><tspan x="0.060000000000001386" dy="14.0">M</tspan></text><text x="27.060000000000006" y="-170.48" dominant-baseline="ideographic" fill="black" font-size="14.0" font-family="sans" text-anchor="middle"><tspan x="27.060000000000006" dy="14.0">5V</tspan></text><text x="99.05999999999999" y="-93.08" dominant-baseline="central" fill="black" font-size="14.0" font-family="sans" text-anchor="start"><tspan x="99.05999999999999" dy="14.0">1N4001</tspan></text><circle cx="27.06" cy="-25.08" r="2.7" style="stroke:black;fill:black;stroke-width:2.0;stroke-dasharray:-;" /><circle cx="27.06" cy="-133.08" r="2.7" style="stroke:black;fill:black;stroke-width:2.0;stroke-dasharray:-;" /></svg>